<svg width="57" height="13" viewBox="0 0 57 13" fill="none" xmlns="http://www.w3.org/2000/svg">
<path d="M17.9748 0.00813111L13.9808 0.00813111L13.3459 7.63427C13.3088 8.24436 13.2525 8.99813 13.2525 9.66235L12.9533 9.66235C12.8598 9.01549 12.7479 8.26241 12.6732 7.61691L11.7961 1.1558C11.7624 0.83407 11.6031 0.536611 11.3502 0.323429C11.0973 0.110246 10.7698 -0.00279568 10.4336 0.00710771L7.54082 0.00710771C7.20391 -0.00567806 6.87475 0.106352 6.62123 0.320087C6.36771 0.533822 6.20918 0.832961 6.17832 1.1558L5.31968 7.58184C5.24497 8.2287 5.11432 9.03557 5.02119 9.66371L4.72341 9.66371C4.72341 8.8742 4.68624 8.20998 4.6487 7.59989L3.99543 0.00779084L0 0.00779084L1.60575 11.3507C1.66484 11.656 1.83767 11.9301 2.09187 12.1217C2.34607 12.3133 2.6642 12.4092 2.98666 12.3914L6.43893 12.3914C6.76199 12.4119 7.08155 12.317 7.33637 12.1249C7.59118 11.9329 7.76333 11.6572 7.81983 11.3507L8.67848 4.5307C8.75319 3.93832 8.79037 3.31018 8.8279 2.70009L9.14657 2.70009C9.18375 3.29248 9.22128 3.92061 9.29599 4.51266L10.1727 11.3507C10.2292 11.6572 10.4013 11.9329 10.6562 12.1249C10.911 12.317 11.2305 12.4119 11.5536 12.3914L14.9882 12.3914C15.3106 12.4091 15.6287 12.3132 15.8829 12.1216C16.1371 11.93 16.3099 11.6559 16.3691 11.3507L17.9748 0.00813111ZM24.304 12.3907L24.304 0.00813111L20.2894 0.00813111L20.2894 12.3907L24.304 12.3907ZM34.3832 9.71648L35.0365 12.3907L39.1615 12.3907L35.8204 1.01213C35.7447 0.721306 35.5688 0.463696 35.3214 0.281215C35.074 0.0987343 34.7697 0.00212352 34.4579 0.00710772L30.7794 0.00710772C30.4676 0.00212352 30.1633 0.0987343 29.9159 0.281215C29.6685 0.463696 29.4926 0.721306 29.4169 1.01213L26.0744 12.3907L30.1994 12.3907L30.8544 9.7175L34.3832 9.71648ZM33.7299 6.98843L31.5074 6.98843L32.1419 4.3329C32.2354 3.88419 32.3097 3.36363 32.366 2.91492L32.8699 2.91492C32.9171 3.39121 32.992 3.86461 33.094 4.3329L33.7299 6.98843ZM51.5369 0.00710772C50.6783 0.00710772 50.1369 0.402035 49.9878 1.20959L49.109 6.12641C49.0155 6.7365 48.9596 7.36463 48.8849 7.97506L48.717 7.97506C48.6611 7.36497 48.6051 6.73684 48.5117 6.12641L47.5783 1.20891C47.5402 0.854667 47.3578 0.529332 47.071 0.304009C46.7842 0.0786856 46.4162 -0.0283035 46.0476 0.00642718L42.5571 0.00642718C41.6238 0.00642718 41.1762 0.473189 41.1387 1.35258L40.6908 12.3907L44.3307 12.3907L44.6494 2.91526L44.9294 2.91526L46.2172 9.2327C46.3666 10.0222 46.9077 10.4171 47.7663 10.4171L49.8554 10.4171C50.714 10.4171 51.2554 10.0222 51.3861 9.2327L52.6554 2.91526L52.9355 2.91526L53.3271 12.3907L56.9678 12.3907L56.5199 1.35326C56.4827 0.473869 56.0344 0.00710772 55.1014 0.00710772L51.5369 0.00710772Z" fill="#11253E"/>
</svg>
